<svg width="20" height="14" viewBox="0 0 20 14" fill="none" xmlns="http://www.w3.org/2000/svg">
<mask id="path-1-inside-1_5_467" fill="white">
<path d="M11.885 4.63V3.7C12.4223 3.428 12.9977 3.224 13.611 3.088C14.2243 2.952 14.854 2.884 15.5 2.884C15.8693 2.884 16.224 2.90767 16.564 2.955C16.9033 3.003 17.254 3.07033 17.616 3.157V4.065C17.2667 3.95367 16.9267 3.87633 16.596 3.833C16.264 3.79033 15.8987 3.769 15.5 3.769C14.8533 3.769 14.2227 3.84167 13.608 3.987C12.992 4.13233 12.4173 4.34667 11.884 4.63M11.884 10.092V9.122C12.396 8.85067 12.9683 8.647 13.601 8.511C14.2337 8.375 14.8667 8.307 15.5 8.307C15.8693 8.307 16.224 8.331 16.564 8.379C16.9033 8.42567 17.254 8.49267 17.616 8.58V9.488C17.2667 9.37667 16.9267 9.29933 16.596 9.256C16.264 9.21333 15.8987 9.192 15.5 9.192C14.8533 9.192 14.2227 9.27033 13.608 9.427C12.992 9.583 12.4173 9.80467 11.884 10.092ZM11.884 7.38V6.411C12.4213 6.139 12.9967 5.93533 13.61 5.8C14.2233 5.66467 14.8533 5.59667 15.5 5.596C15.8693 5.596 16.2237 5.61933 16.563 5.666C16.903 5.714 17.2537 5.78167 17.615 5.869V6.777C17.2663 6.665 16.9263 6.58767 16.595 6.545C16.2637 6.50167 15.8987 6.48 15.5 6.48C14.8533 6.48 14.2227 6.55933 13.608 6.718C12.992 6.876 12.4173 7.09667 11.884 7.38ZM4.5 11.076C5.37333 11.076 6.22233 11.1763 7.047 11.377C7.87167 11.5777 8.68933 11.9043 9.5 12.357V2.546C8.778 2.03067 7.98267 1.644 7.114 1.386C6.244 1.12867 5.37267 1 4.5 1C3.9 1 3.37467 1.03567 2.924 1.107C2.47333 1.17833 1.973 1.31167 1.423 1.507C1.26967 1.55833 1.16067 1.63233 1.096 1.729C1.032 1.825 1 1.93067 1 2.046V11.061C1 11.241 1.064 11.3723 1.192 11.455C1.32 11.5377 1.461 11.5477 1.615 11.485C1.98033 11.3617 2.40267 11.2627 2.882 11.188C3.36133 11.1133 3.90067 11.0753 4.5 11.076ZM10.5 12.357C11.3107 11.905 12.1283 11.5783 12.953 11.377C13.7777 11.1757 14.6267 11.0757 15.5 11.077C16.1 11.077 16.6393 11.114 17.118 11.188C17.5967 11.262 18.019 11.3607 18.385 11.484C18.5383 11.548 18.6793 11.5383 18.808 11.455C18.9367 11.3717 19.0007 11.2403 19 11.061V2.046C19 1.93067 18.968 1.828 18.904 1.738C18.84 1.64867 18.731 1.572 18.577 1.508C18.027 1.31267 17.5267 1.17933 17.076 1.108C16.6253 1.03667 16.1 1.00033 15.5 0.999C14.6267 0.999 13.7557 1.12767 12.887 1.385C12.0177 1.643 11.222 2.02967 10.5 2.545V12.357ZM10 13.807C9.18667 13.251 8.31333 12.8237 7.38 12.525C6.44667 12.2263 5.48667 12.077 4.5 12.077C3.98 12.077 3.46867 12.1203 2.966 12.207C2.464 12.2943 1.97533 12.4343 1.5 12.627C1.13733 12.7717 0.796666 12.728 0.478 12.496C0.159333 12.264 0 11.9433 0 11.534V1.869C0 1.62167 0.0649997 1.392 0.195 1.18C0.325 0.968 0.507334 0.820667 0.742001 0.738C1.32933 0.479333 1.94033 0.291667 2.575 0.175C3.20967 0.0583335 3.85133 0 4.5 0C5.48 0 6.43533 0.141 7.366 0.423C8.298 0.705 9.176 1.115 10 1.653C10.8247 1.115 11.7027 0.705 12.634 0.423C13.5653 0.141 14.5207 0 15.5 0C16.1487 0 16.7903 0.0583335 17.425 0.175C18.0597 0.291667 18.6707 0.479333 19.258 0.738C19.4927 0.821333 19.675 0.968667 19.805 1.18C19.935 1.39133 20 1.621 20 1.869V11.534C20 11.9433 19.828 12.2577 19.484 12.477C19.1393 12.6957 18.7727 12.7327 18.384 12.588C17.922 12.408 17.4493 12.278 16.966 12.198C16.4833 12.1173 15.9947 12.077 15.5 12.077C14.5133 12.077 13.5533 12.2263 12.62 12.525C11.6867 12.8237 10.8133 13.251 10 13.807Z"/>
<path d="M7.94285 3.7V4.63C7.4098 4.34693 6.83547 4.13224 6.21985 3.987C5.60519 3.84167 4.97452 3.769 4.32785 3.769C3.92918 3.769 3.56385 3.79033 3.23185 3.833C2.90118 3.87633 2.56119 3.95367 2.21185 4.065V3.157C2.57385 3.07033 2.92452 3.003 3.26385 2.955C3.60385 2.90767 3.95852 2.884 4.32785 2.884C4.97385 2.884 5.60352 2.952 6.21685 3.088C6.83018 3.224 7.40552 3.428 7.94285 3.7Z"/>
<path d="M7.94385 9.122V10.092C7.41052 9.80467 6.83585 9.583 6.21985 9.427C5.60519 9.27033 4.97452 9.192 4.32785 9.192C3.92918 9.192 3.56385 9.21333 3.23185 9.256C2.90118 9.29933 2.56119 9.37667 2.21185 9.488V8.58C2.57385 8.49267 2.92452 8.42566 3.26385 8.379C3.60385 8.331 3.95852 8.307 4.32785 8.307C4.96118 8.307 5.59419 8.375 6.22685 8.511C6.85952 8.647 7.43185 8.85067 7.94385 9.122Z"/>
<path d="M7.94385 6.411V7.38C7.41052 7.09667 6.83585 6.876 6.21985 6.718C5.60519 6.55933 4.97452 6.48 4.32785 6.48C3.92918 6.48 3.56419 6.50167 3.23285 6.545C2.90152 6.58767 2.56152 6.665 2.21285 6.777V5.869C2.57419 5.78167 2.92485 5.714 3.26485 5.666C3.60418 5.61933 3.95852 5.596 4.32785 5.596C4.97452 5.59667 5.60452 5.66467 6.21785 5.8C6.83119 5.93533 7.40652 6.139 7.94385 6.411Z"/>
</mask>
<path d="M11.885 4.63V3.7C12.4223 3.428 12.9977 3.224 13.611 3.088C14.2243 2.952 14.854 2.884 15.5 2.884C15.8693 2.884 16.224 2.90767 16.564 2.955C16.9033 3.003 17.254 3.07033 17.616 3.157V4.065C17.2667 3.95367 16.9267 3.87633 16.596 3.833C16.264 3.79033 15.8987 3.769 15.5 3.769C14.8533 3.769 14.2227 3.84167 13.608 3.987C12.992 4.13233 12.4173 4.34667 11.884 4.63M11.884 10.092V9.122C12.396 8.85067 12.9683 8.647 13.601 8.511C14.2337 8.375 14.8667 8.307 15.5 8.307C15.8693 8.307 16.224 8.331 16.564 8.379C16.9033 8.42567 17.254 8.49267 17.616 8.58V9.488C17.2667 9.37667 16.9267 9.29933 16.596 9.256C16.264 9.21333 15.8987 9.192 15.5 9.192C14.8533 9.192 14.2227 9.27033 13.608 9.427C12.992 9.583 12.4173 9.80467 11.884 10.092ZM11.884 7.38V6.411C12.4213 6.139 12.9967 5.93533 13.61 5.8C14.2233 5.66467 14.8533 5.59667 15.5 5.596C15.8693 5.596 16.2237 5.61933 16.563 5.666C16.903 5.714 17.2537 5.78167 17.615 5.869V6.777C17.2663 6.665 16.9263 6.58767 16.595 6.545C16.2637 6.50167 15.8987 6.48 15.5 6.48C14.8533 6.48 14.2227 6.55933 13.608 6.718C12.992 6.876 12.4173 7.09667 11.884 7.38ZM4.5 11.076C5.37333 11.076 6.22233 11.1763 7.047 11.377C7.87167 11.5777 8.68933 11.9043 9.5 12.357V2.546C8.778 2.03067 7.98267 1.644 7.114 1.386C6.244 1.12867 5.37267 1 4.5 1C3.9 1 3.37467 1.03567 2.924 1.107C2.47333 1.17833 1.973 1.31167 1.423 1.507C1.26967 1.55833 1.16067 1.63233 1.096 1.729C1.032 1.825 1 1.93067 1 2.046V11.061C1 11.241 1.064 11.3723 1.192 11.455C1.32 11.5377 1.461 11.5477 1.615 11.485C1.98033 11.3617 2.40267 11.2627 2.882 11.188C3.36133 11.1133 3.90067 11.0753 4.5 11.076ZM10.5 12.357C11.3107 11.905 12.1283 11.5783 12.953 11.377C13.7777 11.1757 14.6267 11.0757 15.5 11.077C16.1 11.077 16.6393 11.114 17.118 11.188C17.5967 11.262 18.019 11.3607 18.385 11.484C18.5383 11.548 18.6793 11.5383 18.808 11.455C18.9367 11.3717 19.0007 11.2403 19 11.061V2.046C19 1.93067 18.968 1.828 18.904 1.738C18.84 1.64867 18.731 1.572 18.577 1.508C18.027 1.31267 17.5267 1.17933 17.076 1.108C16.6253 1.03667 16.1 1.00033 15.5 0.999C14.6267 0.999 13.7557 1.12767 12.887 1.385C12.0177 1.643 11.222 2.02967 10.5 2.545V12.357ZM10 13.807C9.18667 13.251 8.31333 12.8237 7.38 12.525C6.44667 12.2263 5.48667 12.077 4.5 12.077C3.98 12.077 3.46867 12.1203 2.966 12.207C2.464 12.2943 1.97533 12.4343 1.5 12.627C1.13733 12.7717 0.796666 12.728 0.478 12.496C0.159333 12.264 0 11.9433 0 11.534V1.869C0 1.62167 0.0649997 1.392 0.195 1.18C0.325 0.968 0.507334 0.820667 0.742001 0.738C1.32933 0.479333 1.94033 0.291667 2.575 0.175C3.20967 0.0583335 3.85133 0 4.5 0C5.48 0 6.43533 0.141 7.366 0.423C8.298 0.705 9.176 1.115 10 1.653C10.8247 1.115 11.7027 0.705 12.634 0.423C13.5653 0.141 14.5207 0 15.5 0C16.1487 0 16.7903 0.0583335 17.425 0.175C18.0597 0.291667 18.6707 0.479333 19.258 0.738C19.4927 0.821333 19.675 0.968667 19.805 1.18C19.935 1.39133 20 1.621 20 1.869V11.534C20 11.9433 19.828 12.2577 19.484 12.477C19.1393 12.6957 18.7727 12.7327 18.384 12.588C17.922 12.408 17.4493 12.278 16.966 12.198C16.4833 12.1173 15.9947 12.077 15.5 12.077C14.5133 12.077 13.5533 12.2263 12.62 12.525C11.6867 12.8237 10.8133 13.251 10 13.807Z" fill="#1B93B0"/>
<path d="M7.94285 3.7V4.63C7.4098 4.34693 6.83547 4.13224 6.21985 3.987C5.60519 3.84167 4.97452 3.769 4.32785 3.769C3.92918 3.769 3.56385 3.79033 3.23185 3.833C2.90118 3.87633 2.56119 3.95367 2.21185 4.065V3.157C2.57385 3.07033 2.92452 3.003 3.26385 2.955C3.60385 2.90767 3.95852 2.884 4.32785 2.884C4.97385 2.884 5.60352 2.952 6.21685 3.088C6.83018 3.224 7.40552 3.428 7.94285 3.7Z" fill="#1B93B0"/>
<path d="M7.94385 9.122V10.092C7.41052 9.80467 6.83585 9.583 6.21985 9.427C5.60519 9.27033 4.97452 9.192 4.32785 9.192C3.92918 9.192 3.56385 9.21333 3.23185 9.256C2.90118 9.29933 2.56119 9.37667 2.21185 9.488V8.58C2.57385 8.49267 2.92452 8.42566 3.26385 8.379C3.60385 8.331 3.95852 8.307 4.32785 8.307C4.96118 8.307 5.59419 8.375 6.22685 8.511C6.85952 8.647 7.43185 8.85067 7.94385 9.122Z" fill="#1B93B0"/>
<path d="M7.94385 6.411V7.38C7.41052 7.09667 6.83585 6.876 6.21985 6.718C5.60519 6.55933 4.97452 6.48 4.32785 6.48C3.92918 6.48 3.56419 6.50167 3.23285 6.545C2.90152 6.58767 2.56152 6.665 2.21285 6.777V5.869C2.57419 5.78167 2.92485 5.714 3.26485 5.666C3.60418 5.61933 3.95852 5.596 4.32785 5.596C4.97452 5.59667 5.60452 5.66467 6.21785 5.8C6.83119 5.93533 7.40652 6.139 7.94385 6.411Z" fill="#1B93B0"/>
<path d="M11.885 3.7L11.4334 2.8078L10.885 3.08538V3.7H11.885ZM15.5 2.884V3.884V2.884ZM16.564 2.955L16.7041 1.96485L16.7019 1.96455L16.564 2.955ZM17.616 3.157H18.616V2.36815L17.8488 2.18448L17.616 3.157ZM17.616 4.065L17.3123 5.01778L18.616 5.43326V4.065H17.616ZM16.596 3.833L16.7259 2.84148L16.7235 2.84116L16.596 3.833ZM13.608 3.987L13.8376 4.96028L13.8381 4.96017L13.608 3.987ZM11.884 10.092H10.884V11.7666L12.3583 10.9724L11.884 10.092ZM11.884 9.122L11.4157 8.23841L10.884 8.5202V9.122H11.884ZM16.564 8.379L16.4242 9.36919L16.4278 9.36968L16.564 8.379ZM17.616 8.58H18.616V7.79256L17.8505 7.60789L17.616 8.58ZM17.616 9.488L17.3123 10.4408L18.616 10.8563V9.488H17.616ZM16.596 9.256L16.7259 8.26447L16.7235 8.26416L16.596 9.256ZM13.608 9.427L13.8535 10.3964L13.855 10.396L13.608 9.427ZM11.884 7.38H10.884V9.0436L12.3532 8.26312L11.884 7.38ZM11.884 6.411L11.4324 5.5188L10.884 5.79638V6.411H11.884ZM15.5 5.596V4.596L15.499 4.596L15.5 5.596ZM16.563 5.666L16.7028 4.67581L16.6992 4.67532L16.563 5.666ZM17.615 5.869H18.615V5.0819L17.8499 4.89699L17.615 5.869ZM17.615 6.777L17.3092 7.72909L18.615 8.14855V6.777H17.615ZM16.595 6.545L16.4653 7.53656L16.4673 7.53681L16.595 6.545ZM13.608 6.718L13.8565 7.68665L13.8579 7.68626L13.608 6.718ZM4.5 11.076L4.49889 12.076H4.5V11.076ZM9.5 12.357L9.01247 13.2301L10.5 14.0607V12.357H9.5ZM9.5 2.546H10.5V2.03116L10.081 1.73206L9.5 2.546ZM7.114 1.386L7.39872 0.427387L7.39764 0.427069L7.114 1.386ZM1.423 1.507L1.74046 2.45527L1.7491 2.45238L1.75767 2.44933L1.423 1.507ZM1.096 1.729L0.264831 1.17298L0.263949 1.1743L1.096 1.729ZM1.615 11.485L1.29514 10.5375L1.26629 10.5473L1.23809 10.5588L1.615 11.485ZM10.5 12.357H9.5V14.0595L10.987 13.2304L10.5 12.357ZM15.5 11.077L15.4985 12.077H15.5V11.077ZM18.385 11.484L18.7702 10.5612L18.7377 10.5476L18.7043 10.5364L18.385 11.484ZM19 11.061H18L18 11.0647L19 11.061ZM18.904 1.738L19.719 1.15847L19.7169 1.15561L18.904 1.738ZM18.577 1.508L18.9608 0.584569L18.9365 0.574471L18.9117 0.565665L18.577 1.508ZM15.5 0.999L15.5022 -0.000999928H15.5V0.999ZM12.887 1.385L12.603 0.426187L12.6025 0.426328L12.887 1.385ZM10.5 2.545L9.91905 1.73106L9.5 2.03016V2.545H10.5ZM10 13.807L9.43566 14.6325L10 15.0183L10.5643 14.6325L10 13.807ZM2.966 12.207L2.79609 11.2215L2.7946 11.2218L2.966 12.207ZM1.5 12.627L1.87051 13.5558L1.87564 13.5538L1.5 12.627ZM0 11.534H1H0ZM0.742001 0.738L1.07426 1.68119L1.11019 1.66853L1.14505 1.65318L0.742001 0.738ZM4.5 0V-1V0ZM7.366 0.423L7.07601 1.38003L7.07639 1.38015L7.366 0.423ZM10 1.653L9.4533 2.49033L9.99978 2.84713L10.5464 2.49053L10 1.653ZM19.258 0.738L18.8549 1.65318L18.8887 1.66802L18.9234 1.68035L19.258 0.738ZM19.484 12.477L20.0197 13.3214L20.0216 13.3202L19.484 12.477ZM18.384 12.588L18.021 13.5198L18.028 13.5225L18.0352 13.5252L18.384 12.588ZM16.966 12.198L16.8012 13.1843L16.8027 13.1846L16.966 12.198ZM7.94285 4.63L7.47384 5.51319L8.94285 6.29329V4.63H7.94285ZM7.94285 3.7H8.94285V3.08538L8.39449 2.8078L7.94285 3.7ZM6.21685 3.088L6.00037 4.06429L6.21685 3.088ZM3.26385 2.955L3.12596 1.96455L3.12379 1.96486L3.26385 2.955ZM2.21185 3.157L1.97902 2.18448L1.21185 2.36815V3.157H2.21185ZM2.21185 4.065H1.21185V5.43326L2.51551 5.01778L2.21185 4.065ZM3.23185 3.833L3.10438 2.84115L3.10191 2.84148L3.23185 3.833ZM6.21985 3.987L5.98975 4.96017L5.99023 4.96028L6.21985 3.987ZM7.94385 10.092L7.46955 10.9724L8.94385 11.7666V10.092H7.94385ZM7.94385 9.122H8.94385V8.5202L8.41211 8.23841L7.94385 9.122ZM3.26385 8.379L3.40009 9.36968L3.40364 9.36918L3.26385 8.379ZM2.21185 8.58L1.97733 7.60789L1.21185 7.79256V8.58H2.21185ZM2.21185 9.488H1.21185V10.8563L2.51551 10.4408L2.21185 9.488ZM3.23185 9.256L3.10438 8.26415L3.10191 8.26448L3.23185 9.256ZM6.21985 9.427L5.97287 10.396L5.97436 10.3964L6.21985 9.427ZM7.94385 7.38L7.4747 8.26311L8.94385 9.0436V7.38H7.94385ZM7.94385 6.411H8.94385V5.79638L8.39549 5.5188L7.94385 6.411ZM6.21785 5.8L6.00238 6.77651L6.21785 5.8ZM4.32785 5.596L4.32888 4.596H4.32785V5.596ZM3.26485 5.666L3.12861 4.67532L3.12506 4.67582L3.26485 5.666ZM2.21285 5.869L1.97792 4.89699L1.21285 5.0819V5.869H2.21285ZM2.21285 6.777H1.21285V8.14855L2.51868 7.72909L2.21285 6.777ZM3.23285 6.545L3.36057 7.53681L3.36253 7.53656L3.23285 6.545ZM6.21985 6.718L5.96991 7.68626L5.9714 7.68664L6.21985 6.718ZM11.885 4.63H12.885V3.7H11.885H10.885V4.63H11.885ZM11.885 3.7L12.3366 4.5922C12.7963 4.35954 13.2922 4.18298 13.8275 4.06429L13.611 3.088L13.3945 2.11171C12.7031 2.26502 12.0484 2.49646 11.4334 2.8078L11.885 3.7ZM13.611 3.088L13.8275 4.06429C14.3677 3.94449 14.9247 3.884 15.5 3.884V2.884V1.884C14.7833 1.884 14.0809 1.95951 13.3945 2.11171L13.611 3.088ZM15.5 2.884V3.884C15.8267 3.884 16.1351 3.90493 16.4261 3.94545L16.564 2.955L16.7019 1.96455C16.3129 1.9104 15.912 1.884 15.5 1.884V2.884ZM16.564 2.955L16.4239 3.94514C16.7296 3.98837 17.0492 4.04956 17.3832 4.12952L17.616 3.157L17.8488 2.18448C17.4588 2.0911 17.0771 2.01763 16.7041 1.96486L16.564 2.955ZM17.616 3.157H16.616V4.065H17.616H18.616V3.157H17.616ZM17.616 4.065L17.9197 3.11222C17.5192 2.98459 17.121 2.89325 16.7259 2.84148L16.596 3.833L16.4661 4.82452C16.7323 4.85941 17.0141 4.92274 17.3123 5.01778L17.616 4.065ZM16.596 3.833L16.7235 2.84116C16.3421 2.79215 15.9335 2.769 15.5 2.769V3.769V4.769C15.8638 4.769 16.1859 4.78852 16.4685 4.82484L16.596 3.833ZM15.5 3.769V2.769C14.7777 2.769 14.0698 2.85025 13.3779 3.01383L13.608 3.987L13.8381 4.96017C14.3756 4.83308 14.929 4.769 15.5 4.769V3.769ZM13.608 3.987L13.3784 3.01372C12.683 3.17778 12.0274 3.42148 11.4148 3.74688L11.884 4.63L12.3532 5.51312C12.8073 5.27186 13.301 5.08689 13.8376 4.96028L13.608 3.987ZM11.884 10.092H12.884V9.122H11.884H10.884V10.092H11.884ZM11.884 9.122L12.3523 10.0056C12.7741 9.78203 13.2581 9.60755 13.8112 9.48867L13.601 8.511L13.3908 7.53333C12.6786 7.68645 12.0179 7.9193 11.4157 8.23841L11.884 9.122ZM13.601 8.511L13.8112 9.48867C14.3763 9.36719 14.9388 9.307 15.5 9.307V8.307V7.307C14.7945 7.307 14.0911 7.38281 13.3908 7.53333L13.601 8.511ZM15.5 8.307V9.307C15.826 9.307 16.1338 9.32819 16.4242 9.36918L16.564 8.379L16.7038 7.38882C16.3142 7.33381 15.9126 7.307 15.5 7.307V8.307ZM16.564 8.379L16.4278 9.36968C16.7313 9.41142 17.0491 9.47193 17.3815 9.55211L17.616 8.58L17.8505 7.60789C17.4589 7.5134 17.0753 7.43991 16.7002 7.38832L16.564 8.379ZM17.616 8.58H16.616V9.488H17.616H18.616V8.58H17.616ZM17.616 9.488L17.9197 8.53522C17.5192 8.40759 17.121 8.31625 16.7259 8.26448L16.596 9.256L16.4661 10.2475C16.7323 10.2824 17.0141 10.3457 17.3123 10.4408L17.616 9.488ZM16.596 9.256L16.7235 8.26416C16.3421 8.21515 15.9335 8.192 15.5 8.192V9.192V10.192C15.8638 10.192 16.1859 10.2115 16.4685 10.2478L16.596 9.256ZM15.5 9.192V8.192C14.7717 8.192 14.058 8.28034 13.361 8.45798L13.608 9.427L13.855 10.396C14.3874 10.2603 14.935 10.192 15.5 10.192V9.192ZM13.608 9.427L13.3625 8.4576C12.6708 8.63278 12.0188 8.88348 11.4097 9.21163L11.884 10.092L12.3583 10.9724C12.8159 10.7259 13.3132 10.5332 13.8535 10.3964L13.608 9.427ZM11.884 7.38H12.884V6.411H11.884H10.884V7.38H11.884ZM11.884 6.411L12.3356 7.3032C12.7949 7.0707 13.2906 6.89454 13.8255 6.77651L13.61 5.8L13.3945 4.82349C12.7028 4.97613 12.0477 5.2073 11.4324 5.5188L11.884 6.411ZM13.61 5.8L13.8255 6.77651C14.3663 6.65717 14.9243 6.59659 15.501 6.596L15.5 5.596L15.499 4.596C14.7823 4.59674 14.0803 4.67216 13.3945 4.82349L13.61 5.8ZM15.5 5.596V6.596C15.8273 6.596 16.1359 6.61668 16.4268 6.65668L16.563 5.666L16.6992 4.67532C16.3114 4.62199 15.9114 4.596 15.5 4.596V5.596ZM16.563 5.666L16.4232 6.65618C16.7287 6.69931 17.0476 6.76065 17.3801 6.84101L17.615 5.869L17.8499 4.89699C17.4597 4.80268 17.0773 4.72869 16.7028 4.67582L16.563 5.666ZM17.615 5.869H16.615V6.777H17.615H18.615V5.869H17.615ZM17.615 6.777L17.9208 5.82491C17.5196 5.69603 17.12 5.60434 16.7227 5.55319L16.595 6.545L16.4673 7.53681C16.7327 7.57099 17.0131 7.63397 17.3092 7.72909L17.615 6.777ZM16.595 6.545L16.7247 5.55344C16.3431 5.50354 15.934 5.48 15.5 5.48V6.48V7.48C15.8633 7.48 16.1842 7.4998 16.4653 7.53656L16.595 6.545ZM15.5 6.48V5.48C14.7706 5.48 14.0559 5.56961 13.3581 5.74974L13.608 6.718L13.8579 7.68626C14.3894 7.54906 14.9361 7.48 15.5 7.48V6.48ZM13.608 6.718L13.3595 5.74936C12.6709 5.92599 12.0217 6.17449 11.4148 6.49688L11.884 7.38L12.3532 8.26312C12.813 8.01884 13.3131 7.82601 13.8565 7.68665L13.608 6.718ZM4.5 11.076V12.076C5.29599 12.076 6.06552 12.1674 6.81057 12.3486L7.047 11.377L7.28343 10.4054C6.37915 10.1853 5.45068 10.076 4.5 10.076V11.076ZM7.047 11.377L6.81057 12.3486C7.53966 12.5261 8.27333 12.8174 9.01247 13.2301L9.5 12.357L9.98753 11.4839C9.10534 10.9913 8.20367 10.6293 7.28343 10.4054L7.047 11.377ZM9.5 12.357H10.5V2.546H9.5H8.5V12.357H9.5ZM9.5 2.546L10.081 1.73206C9.26694 1.15106 8.37113 0.716202 7.39872 0.427388L7.114 1.386L6.82929 2.34461C7.5942 2.5718 8.28906 2.91028 8.91905 3.35994L9.5 2.546ZM7.114 1.386L7.39764 0.427069C6.43923 0.143584 5.47245 0 4.5 0V1V2C5.27288 2 6.04878 2.11375 6.83036 2.34493L7.114 1.386ZM4.5 1V0C3.86293 0 3.28321 0.0376926 2.76766 0.119296L2.924 1.107L3.08034 2.0947C3.46612 2.03364 3.93707 2 4.5 2V1ZM2.924 1.107L2.76766 0.119296C2.24223 0.202463 1.6811 0.354142 1.08833 0.564665L1.423 1.507L1.75767 2.44933C2.2649 2.26919 2.70443 2.1542 3.08034 2.0947L2.924 1.107ZM1.423 1.507L1.10554 0.55873C0.822727 0.653409 0.492653 0.832421 0.264832 1.17298L1.096 1.729L1.92717 2.28502C1.82868 2.43225 1.71661 2.46326 1.74046 2.45527L1.423 1.507ZM1.096 1.729L0.263949 1.1743C0.0904818 1.4345 0 1.73316 0 2.046H1H2C2 2.08212 1.99479 2.12482 1.98108 2.17009C1.96737 2.21536 1.94803 2.25372 1.92805 2.2837L1.096 1.729ZM1 2.046H0V11.061H1H2V2.046H1ZM1 11.061H0C0 11.509 0.180991 11.9925 0.649474 12.295L1.192 11.455L1.73452 10.615C1.81688 10.6681 1.89551 10.7509 1.94694 10.8564C1.99507 10.9552 2 11.0337 2 11.061H1ZM1.192 11.455L0.649474 12.295C1.07956 12.5728 1.56799 12.5838 1.99191 12.4112L1.615 11.485L1.23809 10.5588C1.27803 10.5425 1.35761 10.5194 1.4645 10.527C1.57498 10.5348 1.66838 10.5722 1.73452 10.615L1.192 11.455ZM1.615 11.485L1.93486 12.4325C2.23442 12.3313 2.59926 12.2441 3.03592 12.1761L2.882 11.188L2.72808 10.1999C2.20608 10.2812 1.72624 10.392 1.29514 10.5375L1.615 11.485ZM2.882 11.188L3.03592 12.1761C3.45478 12.1108 3.94126 12.0754 4.49889 12.076L4.5 11.076L4.50111 10.076C3.86008 10.0753 3.26789 10.1158 2.72808 10.1999L2.882 11.188ZM10.5 12.357L10.987 13.2304C11.7264 12.8181 12.4605 12.5266 13.1902 12.3485L12.953 11.377L12.7158 10.4055C11.7961 10.6301 10.8949 10.9919 10.013 11.4836L10.5 12.357ZM12.953 11.377L13.1902 12.3485C13.9345 12.1668 14.7032 12.0758 15.4985 12.077L15.5 11.077L15.5015 10.077C14.5501 10.0755 13.6208 10.1846 12.7158 10.4055L12.953 11.377ZM15.5 11.077V12.077C16.0604 12.077 16.5474 12.1117 16.9652 12.1763L17.118 11.188L17.2708 10.1997C16.7313 10.1163 16.1396 10.077 15.5 10.077V11.077ZM17.118 11.188L16.9652 12.1763C17.4009 12.2436 17.7655 12.3305 18.0657 12.4316L18.385 11.484L18.7043 10.5364C18.2725 10.3908 17.7925 10.2804 17.2708 10.1997L17.118 11.188ZM18.385 11.484L17.9998 12.4068C18.4275 12.5853 18.9198 12.574 19.3516 12.2943L18.808 11.455L18.2644 10.6157C18.3301 10.5731 18.4244 10.5348 18.5374 10.5271C18.6468 10.5196 18.7286 10.5438 18.7702 10.5612L18.385 11.484ZM18.808 11.455L19.3516 12.2943C19.8183 11.9921 20.0017 11.5096 20 11.0573L19 11.061L18 11.0647C17.9999 11.0355 18.005 10.9556 18.0536 10.8559C18.1053 10.7498 18.1838 10.6678 18.2644 10.6157L18.808 11.455ZM19 11.061H20V2.046H19H18V11.061H19ZM19 2.046H20C20 1.73276 19.9089 1.42556 19.719 1.15848L18.904 1.738L18.089 2.31752C18.0615 2.27885 18.0376 2.23222 18.0213 2.18007C18.0052 2.12833 18 2.08194 18 2.046H19ZM18.904 1.738L19.7169 1.15561C19.502 0.855697 19.2042 0.685744 18.9608 0.584569L18.577 1.508L18.1932 2.43143C18.2188 2.44205 18.217 2.44411 18.1989 2.43144C18.1805 2.41845 18.1367 2.38409 18.0911 2.32039L18.904 1.738ZM18.577 1.508L18.9117 0.565665C18.3189 0.355142 17.7578 0.203464 17.2323 0.120297L17.076 1.108L16.9197 2.0957C17.2956 2.1552 17.7351 2.27019 18.2423 2.45033L18.577 1.508ZM17.076 1.108L17.2323 0.120297C16.7177 0.0388388 16.1388 0.000417085 15.5022 -0.000997458L15.5 0.999L15.4978 1.999C16.0612 2.00025 16.533 2.0345 16.9197 2.0957L17.076 1.108ZM15.5 0.999V-0.000999928C14.5269 -0.000999928 13.5604 0.142566 12.603 0.426187L12.887 1.385L13.171 2.34381C13.951 2.11277 14.7264 1.999 15.5 1.999V0.999ZM12.887 1.385L12.6025 0.426328C11.6294 0.715117 10.7332 1.14997 9.91905 1.73106L10.5 2.545L11.081 3.35894C11.7108 2.90937 12.4059 2.57088 13.1715 2.34367L12.887 1.385ZM10.5 2.545H9.5V12.357H10.5H11.5V2.545H10.5ZM10 13.807L10.5643 12.9815C9.67152 12.3711 8.71082 11.9009 7.68478 11.5726L7.38 12.525L7.07522 13.4774C7.91585 13.7464 8.70181 14.1309 9.43566 14.6325L10 13.807ZM7.38 12.525L7.68478 11.5726C6.65224 11.2422 5.58939 11.077 4.5 11.077V12.077V13.077C5.38395 13.077 6.24109 13.2105 7.07522 13.4774L7.38 12.525ZM4.5 12.077V11.077C3.92416 11.077 3.35596 11.125 2.79609 11.2215L2.966 12.207L3.13591 13.1925C3.58137 13.1157 4.03584 13.077 4.5 13.077V12.077ZM2.966 12.207L2.7946 11.2218C2.22218 11.3214 1.66507 11.4811 1.12436 11.7002L1.5 12.627L1.87564 13.5538C2.2856 13.3876 2.70582 13.2673 3.1374 13.1922L2.966 12.207ZM1.5 12.627L1.12949 11.6982C1.1051 11.7079 1.09235 11.71 1.08998 11.7103C1.08824 11.7106 1.09232 11.7099 1.09964 11.7109C1.10692 11.7118 1.10993 11.7134 1.10687 11.7121C1.10322 11.7106 1.08969 11.7044 1.06657 11.6876L0.478 12.496L-0.110574 13.3044C0.482644 13.7363 1.185 13.8293 1.87051 13.5558L1.5 12.627ZM0.478 12.496L1.06657 11.6876C1.02396 11.6565 1.01611 11.6387 1.01504 11.6365C1.01332 11.6331 1 11.6065 1 11.534H0H-1C-1 12.2486 -0.699253 12.8759 -0.110574 13.3044L0.478 12.496ZM0 11.534H1V1.869H0H-1V11.534H0ZM0 1.869H1C1 1.80725 1.01339 1.75836 1.04749 1.70275L0.195 1.18L-0.657486 0.65725C-0.883388 1.02564 -1 1.43608 -1 1.869H0ZM0.195 1.18L1.04749 1.70275C1.05242 1.69471 1.05579 1.6906 1.05705 1.68915C1.05826 1.68776 1.05844 1.68776 1.05775 1.68831C1.05707 1.68886 1.05713 1.68867 1.05878 1.68776C1.06051 1.68681 1.06528 1.68435 1.07426 1.68119L0.742001 0.738L0.409741 -0.205188C-0.0413413 -0.0462841 -0.407416 0.249443 -0.657486 0.65725L0.195 1.18ZM0.742001 0.738L1.14505 1.65318C1.66082 1.42603 2.19719 1.2612 2.75579 1.15852L2.575 0.175L2.39421 -0.808521C1.68347 -0.677871 0.997852 -0.467364 0.338949 -0.177177L0.742001 0.738ZM2.575 0.175L2.75579 1.15852C3.33051 1.05288 3.91166 1 4.5 1V0V-1C3.79101 -1 3.08882 -0.936208 2.39421 -0.808521L2.575 0.175ZM4.5 0V1C5.38252 1 6.24011 1.12674 7.07601 1.38003L7.366 0.423L7.65599 -0.53403C6.63056 -0.844744 5.57748 -1 4.5 -1V0ZM7.366 0.423L7.07639 1.38015C7.91646 1.63433 8.70801 2.00372 9.4533 2.49033L10 1.653L10.5467 0.815672C9.64399 0.22628 8.67954 -0.224329 7.65561 -0.534145L7.366 0.423ZM10 1.653L10.5464 2.49053C11.2926 2.00373 12.0843 1.63428 12.9238 1.38009L12.634 0.423L12.3442 -0.534087C11.321 -0.224275 10.3567 0.226274 9.45361 0.81547L10 1.653ZM12.634 0.423L12.9238 1.38009C13.7606 1.12673 14.6182 1 15.5 1V0V-1C14.4231 -1 13.3701 -0.844725 12.3442 -0.534087L12.634 0.423ZM15.5 0V1C16.0883 1 16.6695 1.05288 17.2442 1.15852L17.425 0.175L17.6058 -0.808521C16.9112 -0.936208 16.209 -1 15.5 -1V0ZM17.425 0.175L17.2442 1.15852C17.8028 1.2612 18.3392 1.42603 18.8549 1.65318L19.258 0.738L19.6611 -0.177177C19.0021 -0.467364 18.3165 -0.677871 17.6058 -0.808521L17.425 0.175ZM19.258 0.738L18.9234 1.68035C18.9328 1.68369 18.938 1.68636 18.9401 1.68755C18.9422 1.68869 18.9426 1.68912 18.9422 1.68881C18.9419 1.68849 18.9422 1.6887 18.9436 1.69022C18.9449 1.6918 18.9483 1.69596 18.9532 1.70395L19.805 1.18L20.6568 0.656053C20.4067 0.249556 20.0415 -0.0449458 19.5926 -0.204346L19.258 0.738ZM19.805 1.18L18.9532 1.70395C18.9864 1.75779 19 1.80609 19 1.869H20H21C21 1.43591 20.8836 1.02488 20.6568 0.656053L19.805 1.18ZM20 1.869H19V11.534H20H21V1.869H20ZM20 11.534H19C19 11.5662 18.9966 11.5844 18.9949 11.592C18.9932 11.5989 18.9923 11.5994 18.9937 11.5967C18.9952 11.5941 18.9954 11.5948 18.9908 11.5996C18.9858 11.6048 18.9728 11.617 18.9464 11.6338L19.484 12.477L20.0216 13.3202C20.6548 12.9165 21 12.2835 21 11.534H20ZM19.484 12.477L18.9483 11.6326C18.893 11.6677 18.8625 11.6725 18.8501 11.6738C18.8371 11.6751 18.8019 11.6765 18.7328 11.6508L18.384 12.588L18.0352 13.5252C18.7114 13.7769 19.406 13.7108 20.0197 13.3214L19.484 12.477ZM18.384 12.588L18.747 11.6562C18.2213 11.4514 17.6817 11.3029 17.1293 11.2114L16.966 12.198L16.8027 13.1846C17.2169 13.2531 17.6227 13.3646 18.021 13.5198L18.384 12.588ZM16.966 12.198L17.1308 11.2117C16.5931 11.1218 16.0493 11.077 15.5 11.077V12.077V13.077C15.94 13.077 16.3736 13.1129 16.8012 13.1843L16.966 12.198ZM15.5 12.077V11.077C14.4106 11.077 13.3478 11.2422 12.3152 11.5726L12.62 12.525L12.9248 13.4774C13.7589 13.2105 14.6161 13.077 15.5 13.077V12.077ZM12.62 12.525L12.3152 11.5726C11.2892 11.9009 10.3285 12.3711 9.43566 12.9815L10 13.807L10.5643 14.6325C11.2982 14.1309 12.0842 13.7464 12.9248 13.4774L12.62 12.525ZM7.94285 4.63H8.94285V3.7H7.94285H6.94285V4.63H7.94285ZM7.94285 3.7L8.39449 2.8078C7.77944 2.49646 7.12473 2.26502 6.43333 2.11171L6.21685 3.088L6.00037 4.06429C6.53564 4.18298 7.0316 4.35954 7.49122 4.5922L7.94285 3.7ZM6.21685 3.088L6.43333 2.11171C5.74693 1.95951 5.0446 1.884 4.32785 1.884V2.884V3.884C4.90311 3.884 5.4601 3.94449 6.00037 4.06429L6.21685 3.088ZM4.32785 2.884V1.884C3.91584 1.884 3.51494 1.9104 3.12597 1.96455L3.26385 2.955L3.40174 3.94545C3.69276 3.90493 4.0012 3.884 4.32785 3.884V2.884ZM3.26385 2.955L3.12379 1.96486C2.75075 2.01763 2.36906 2.0911 1.97902 2.18448L2.21185 3.157L2.44468 4.12952C2.77864 4.04956 3.09829 3.98837 3.40391 3.94514L3.26385 2.955ZM2.21185 3.157H1.21185V4.065H2.21185H3.21185V3.157H2.21185ZM2.21185 4.065L2.51551 5.01778C2.81373 4.92274 3.09555 4.85941 3.36179 4.82452L3.23185 3.833L3.10191 2.84148C2.70682 2.89325 2.30865 2.98459 1.9082 3.11222L2.21185 4.065ZM3.23185 3.833L3.35932 4.82484C3.64197 4.78852 3.96402 4.769 4.32785 4.769V3.769V2.769C3.89434 2.769 3.48573 2.79215 3.10438 2.84116L3.23185 3.833ZM4.32785 3.769V4.769C4.89889 4.769 5.45227 4.83308 5.98975 4.96017L6.21985 3.987L6.44995 3.01383C5.7581 2.85025 5.05014 2.769 4.32785 2.769V3.769ZM6.21985 3.987L5.99023 4.96028C6.52598 5.08668 7.01948 5.27191 7.47384 5.51319L7.94285 4.63L8.41186 3.74681C7.80013 3.42195 7.14496 3.17781 6.44948 3.01372L6.21985 3.987ZM7.94385 10.092H8.94385V9.122H7.94385H6.94385V10.092H7.94385ZM7.94385 9.122L8.41211 8.23841C7.80997 7.9193 7.14929 7.68644 6.43702 7.53333L6.22685 8.511L6.01669 9.48867C6.56975 9.60755 7.05374 9.78203 7.47559 10.0056L7.94385 9.122ZM6.22685 8.511L6.43702 7.53333C5.73679 7.38281 5.03335 7.307 4.32785 7.307V8.307V9.307C4.88901 9.307 5.45159 9.36719 6.01669 9.48867L6.22685 8.511ZM4.32785 8.307V7.307C3.91523 7.307 3.5137 7.33381 3.12406 7.38882L3.26385 8.379L3.40364 9.36918C3.694 9.32819 4.0018 9.307 4.32785 9.307V8.307ZM3.26385 8.379L3.12761 7.38832C2.75252 7.43991 2.36899 7.5134 1.97733 7.60789L2.21185 8.58L2.44638 9.55211C2.77872 9.47193 3.09652 9.41142 3.40009 9.36967L3.26385 8.379ZM2.21185 8.58H1.21185V9.488H2.21185H3.21185V8.58H2.21185ZM2.21185 9.488L2.51551 10.4408C2.81373 10.3457 3.09555 10.2824 3.36179 10.2475L3.23185 9.256L3.10191 8.26448C2.70682 8.31625 2.30865 8.40759 1.9082 8.53522L2.21185 9.488ZM3.23185 9.256L3.35931 10.2478C3.64197 10.2115 3.96402 10.192 4.32785 10.192V9.192V8.192C3.89434 8.192 3.48573 8.21515 3.10438 8.26416L3.23185 9.256ZM4.32785 9.192V10.192C4.89285 10.192 5.44049 10.2603 5.97287 10.396L6.21985 9.427L6.46684 8.45798C5.76989 8.28034 5.05618 8.192 4.32785 8.192V9.192ZM6.21985 9.427L5.97436 10.3964C6.51461 10.5332 7.01199 10.7259 7.46955 10.9724L7.94385 10.092L8.41815 9.21163C7.80904 8.88348 7.15709 8.63278 6.46535 8.4576L6.21985 9.427ZM7.94385 7.38H8.94385V6.411H7.94385H6.94385V7.38H7.94385ZM7.94385 6.411L8.39549 5.5188C7.78013 5.2073 7.12509 4.97613 6.43332 4.82349L6.21785 5.8L6.00238 6.77651C6.53729 6.89454 7.0329 7.0707 7.49222 7.3032L7.94385 6.411ZM6.21785 5.8L6.43332 4.82349C5.74751 4.67216 5.04553 4.59674 4.32888 4.596L4.32785 5.596L4.32682 6.596C4.9035 6.59659 5.46153 6.65717 6.00238 6.77651L6.21785 5.8ZM4.32785 5.596V4.596C3.91645 4.596 3.51644 4.62199 3.12861 4.67532L3.26485 5.666L3.40109 6.65668C3.69193 6.61668 4.00058 6.596 4.32785 6.596V5.596ZM3.26485 5.666L3.12506 4.67582C2.75058 4.72869 2.36811 4.80268 1.97792 4.89699L2.21285 5.869L2.44779 6.84101C2.78026 6.76065 3.09912 6.69931 3.40464 6.65618L3.26485 5.666ZM2.21285 5.869H1.21285V6.777H2.21285H3.21285V5.869H2.21285ZM2.21285 6.777L2.51868 7.72909C2.8148 7.63397 3.09515 7.57099 3.36057 7.53681L3.23285 6.545L3.10513 5.55319C2.70789 5.60434 2.30824 5.69603 1.90702 5.82491L2.21285 6.777ZM3.23285 6.545L3.36253 7.53656C3.64361 7.49979 3.96455 7.48 4.32785 7.48V6.48V5.48C3.89382 5.48 3.48476 5.50354 3.10317 5.55344L3.23285 6.545ZM4.32785 6.48V7.48C4.89178 7.48 5.43841 7.54906 5.96991 7.68626L6.21985 6.718L6.46979 5.74974C5.77196 5.5696 5.05725 5.48 4.32785 5.48V6.48ZM6.21985 6.718L5.9714 7.68664C6.51476 7.82601 7.01489 8.01884 7.4747 8.26311L7.94385 7.38L8.41301 6.49688C7.80615 6.17449 7.15694 5.92599 6.4683 5.74936L6.21985 6.718Z" fill="#1B93B0" mask="url(#path-1-inside-1_5_467)"/>
</svg>
