<svg width="33" height="33" viewBox="0 0 33 33" fill="none" xmlns="http://www.w3.org/2000/svg">
<path d="M28.4883 11.57V5.47852C28.4883 4.94459 28.0554 4.51172 27.5215 4.51172H21.43L17.1822 0.281725C16.8049 -0.0939082 16.195 -0.0939082 15.8178 0.281725L11.57 4.51172H5.47852C4.94459 4.51172 4.51172 4.94459 4.51172 5.47852V11.57L0.281725 15.8178C-0.0939082 16.1951 -0.0939082 16.805 0.281725 17.1822L4.51172 21.43V27.5215C4.51172 28.0554 4.94459 28.4883 5.47852 28.4883H11.57L15.8178 32.7183C16.0064 32.9061 16.2532 33 16.5 33C16.7468 33 16.9936 32.9061 17.1822 32.7183L21.43 28.4883H27.5215C28.0554 28.4883 28.4883 28.0554 28.4883 27.5215V21.43L32.7183 17.1822C33.0939 16.805 33.0939 16.1951 32.7183 15.8178L28.4883 11.57ZM26.8364 20.3484C26.656 20.5297 26.5547 20.7749 26.5547 21.0306V26.5547H21.0307C20.775 26.5547 20.5297 26.656 20.3485 26.8364L16.5 30.6688L12.6516 26.8364C12.4703 26.656 12.2251 26.5547 11.9694 26.5547H6.44531V21.0307C6.44531 20.775 6.34399 20.5297 6.16359 20.3485L2.3312 16.5L6.16359 12.6516C6.34399 12.4703 6.44531 12.2251 6.44531 11.9694V6.44531H11.9693C12.225 6.44531 12.4703 6.34399 12.6515 6.16359L16.5 2.3312L20.3485 6.16359C20.5297 6.34399 20.775 6.44531 21.0307 6.44531H26.5547V11.9693C26.5547 12.225 26.656 12.4703 26.8364 12.6515L30.6688 16.5L26.8364 20.3484Z" fill="#B69B66"/>
</svg>
